<svg width="27" height="27" viewBox="0 0 27 27" fill="none" xmlns="http://www.w3.org/2000/svg">
<path d="M13.5 0C8.00025 0 3.52606 4.47419 3.52606 9.97392C3.52606 11.7845 4.33806 13.7317 4.37209 13.8139C4.63434 14.4364 5.15181 15.4033 5.52495 15.97L12.3635 26.3317C12.6434 26.7565 13.0576 27 13.5 27C13.9424 27 14.3566 26.7565 14.6364 26.3323L21.4756 15.97C21.8493 15.4033 22.3662 14.4364 22.6285 13.8139C22.6625 13.7323 23.4739 11.7851 23.4739 9.97392C23.4739 4.47419 18.9997 0 13.5 0ZM21.5466 13.3586C21.3125 13.9166 20.8308 14.816 20.4958 15.3241L13.6566 25.6864C13.5217 25.8911 13.4789 25.8911 13.3439 25.6864L6.50475 15.3241C6.16974 14.816 5.68806 13.916 5.45396 13.358C5.44399 13.334 4.69947 11.5416 4.69947 9.97392C4.69947 5.12132 8.64738 1.1734 13.5 1.1734C18.3526 1.1734 22.3005 5.12132 22.3005 9.97392C22.3005 11.5439 21.5542 13.341 21.5466 13.3586Z" fill="#333333"/>
<path d="M13.5 4.69409C10.5882 4.69409 8.21967 7.06319 8.21967 9.9744C8.21967 12.8856 10.5882 15.2547 13.5 15.2547C16.4118 15.2547 18.7803 12.8856 18.7803 9.9744C18.7803 7.06319 16.4118 4.69409 13.5 4.69409ZM13.5 14.0813C11.2359 14.0813 9.39307 12.2391 9.39307 9.9744C9.39307 7.70974 11.2359 5.86749 13.5 5.86749C15.7641 5.86749 17.6069 7.70974 17.6069 9.9744C17.6069 12.2391 15.7641 14.0813 13.5 14.0813Z" fill="#333333"/>
</svg>
